<?xml version="1.0" encoding="utf-8"?>
<!-- Generator: Adobe Illustrator 15.0.0, SVG Export Plug-In . SVG Version: 6.00 Build 0)  -->
<!DOCTYPE svg PUBLIC "-//W3C//DTD SVG 1.1//EN" "http://www.w3.org/Graphics/SVG/1.1/DTD/svg11.dtd">
<svg version="1.1" id="Layer_1" xmlns="http://www.w3.org/2000/svg" xmlns:xlink="http://www.w3.org/1999/xlink" x="0px" y="0px"
	 width="259.151px" height="287.665px" viewBox="0 0 259.151 287.665" enable-background="new 0 0 259.151 287.665"
	 xml:space="preserve">
<path fill="#E0B925" d="M27.179,0c-3.767,0-5.647,1.18-5.647,3.53c0,0.943,0.529,1.649,1.588,2.118
	c1.059,0.475,3.706,0.706,7.941,0.706c9.177,0,14.825,0.353,16.942,1.059c4.467,1.886,6.706,6.59,6.706,14.118v201.542
	c0,24.001-0.827,38.473-2.471,43.414c-3.061,9.177-8.355,13.766-15.883,13.766c-3.529,0-5.294-1.059-5.294-3.177
	c0-1.412,1.059-3.414,3.177-6c3.055-3.53,4.588-7.534,4.588-12.001c0-5.179-1.825-9.414-5.471-12.707
	c-3.651-3.292-8.179-4.941-13.589-4.941C6.591,241.426,0,248.132,0,261.545c0,7.765,2.812,14.058,8.438,18.884
	c5.625,4.819,13.004,7.235,22.148,7.235c12.42,0,24.139-4.418,35.158-13.253c10.875-8.724,16.58-15.581,19.459-27.633
	c2.081,0.069,4.023,0,7.235,0H259.06c0.163-5.83,0.058-60.062,0.058-60.062c0.23-3.529-1.119-5.294-4.059-5.294
	c-2.482,0-3.84,1.533-4.061,4.588c-0.705,13.181-3.061,23.648-7.059,31.414c-4.004,7.765-11.648,13.06-22.943,15.883
	c-11.295,2.824-17.694,4.235-45.226,4.235c-11.295,0-20.119-0.115-26.473-0.353V28.943c0-10.352,0.646-16.528,1.941-18.53
	c1.291-1.997,5.35-3.116,12.178-3.353c6.822-0.232,10.881-0.53,12.178-0.882c1.291-0.353,1.941-1.235,1.941-2.647
	c0-2.35-2.119-3.53-6.354-3.53 M114.356,222.719c0,7.297-0.882,11.709-2.647,13.236c-1.765,1.533-7.12,2.531-16.06,3
	c-4.567,0.341-6.772-0.02-8.357-0.257c1.418-7.253,1.931-15.384,2.361-28.785c0.232-10.362,0.232-23.676,0-39.935v-32.864V23.671
	c0-7.776,0.274-12.35,0.529-13.782c0.257-1.442,1.59-2.796,3.147-2.827c10.506,0.022,15.275-0.052,17.401-0.052
	c1.646,0,2.625,1.521,2.958,3.062c0.228,1.051,0.667,8.797,0.667,14.283V222.719z"/>
</svg>
